<svg xmlns="http://www.w3.org/2000/svg" xmlns:xlink="http://www.w3.org/1999/xlink" width="300" zoomAndPan="magnify" viewBox="0 0 224.87999 60" height="80" preserveAspectRatio="xMidYMid meet" version="1.0"><defs><g/><clipPath id="43d423d9d9"><path d="M 5.996094 6.011719 L 49.472656 6.011719 L 49.472656 52.488281 L 5.996094 52.488281 Z M 5.996094 6.011719 " clip-rule="nonzero"/></clipPath></defs><g clip-path="url(#43d423d9d9)"><path fill="#100f0d" d="M 42.675781 52.480469 L 13.824219 52.480469 L 13.824219 28.566406 L 5.996094 28.566406 C 10.648438 23.753906 25.4375 8.417969 27.734375 6.035156 C 28.894531 7.238281 29.855469 8.230469 33.3125 11.8125 L 33.3125 9.199219 L 43.046875 9.199219 L 43.046875 21.90625 L 49.472656 28.566406 L 23.792969 28.566406 L 23.792969 30.769531 L 37.886719 30.769531 L 37.886719 33.601562 L 20.96875 33.601562 L 20.96875 25.738281 L 42.816406 25.738281 L 40.222656 23.050781 L 40.222656 12.03125 L 36.136719 12.03125 L 36.136719 18.8125 C 33.84375 16.4375 31.152344 13.644531 27.738281 10.105469 C 27.738281 10.105469 16.257812 22.007812 16.253906 22.011719 C 16.078125 22.191406 14.238281 24.101562 12.660156 25.738281 L 16.648438 25.738281 L 16.648438 49.652344 L 42.675781 49.652344 L 42.675781 52.480469 " fill-opacity="1" fill-rule="nonzero"/></g><path fill="#100f0d" d="M 42.675781 46.03125 L 20.96875 46.03125 L 20.96875 36.277344 L 37.886719 36.277344 L 37.886719 39.109375 L 23.792969 39.109375 L 23.792969 43.199219 L 42.675781 43.199219 L 42.675781 46.03125 " fill-opacity="1" fill-rule="nonzero"/><g fill="#100f0d" fill-opacity="1"><g transform="translate(44.536342, 50.997886)"><g><path d="M 1.953125 0 L 1.953125 -19.890625 L 6.40625 -19.890625 L 6.40625 -3.625 L 20.953125 -3.625 L 20.953125 0 Z M 1.953125 0 "/></g></g></g><g fill="#100f0d" fill-opacity="1"><g transform="translate(66.316909, 50.997886)"><g><path d="M 10.546875 0 L 10.546875 -7.09375 L 0 -19.890625 L 5.515625 -19.890625 L 12.765625 -10.875 L 20.015625 -19.890625 L 25.515625 -19.890625 L 15.03125 -7.125 L 15.03125 0 Z M 10.546875 0 "/></g></g></g><g fill="#100f0d" fill-opacity="1"><g transform="translate(91.824937, 50.997886)"><g><path d="M 1.3125 0.140625 L 1.3125 -3.484375 L 17.3125 -3.453125 C 18.125 -3.453125 18.75 -3.640625 19.1875 -4.015625 C 19.625 -4.398438 19.84375 -5.019531 19.84375 -5.875 C 19.84375 -6.726562 19.625 -7.34375 19.1875 -7.71875 C 18.75 -8.101562 18.125 -8.296875 17.3125 -8.296875 L 7.34375 -8.296875 C 5.28125 -8.296875 3.675781 -8.789062 2.53125 -9.78125 C 1.394531 -10.769531 0.828125 -12.234375 0.828125 -14.171875 C 0.828125 -16.097656 1.394531 -17.554688 2.53125 -18.546875 C 3.675781 -19.535156 5.28125 -20.03125 7.34375 -20.03125 L 22.984375 -20.03125 L 22.984375 -16.421875 L 7.8125 -16.453125 C 7.019531 -16.453125 6.398438 -16.269531 5.953125 -15.90625 C 5.503906 -15.539062 5.28125 -14.960938 5.28125 -14.171875 C 5.28125 -13.367188 5.503906 -12.785156 5.953125 -12.421875 C 6.398438 -12.054688 7.019531 -11.875 7.8125 -11.875 L 17.78125 -11.875 C 19.84375 -11.875 21.441406 -11.367188 22.578125 -10.359375 C 23.722656 -9.347656 24.296875 -7.851562 24.296875 -5.875 C 24.296875 -3.90625 23.722656 -2.410156 22.578125 -1.390625 C 21.441406 -0.367188 19.84375 0.140625 17.78125 0.140625 Z M 1.3125 0.140625 "/></g></g></g><g fill="#100f0d" fill-opacity="1"><g transform="translate(116.943525, 50.997886)"><g><path d="M 1.953125 0 L 1.953125 -19.890625 L 6.40625 -19.890625 L 6.40625 0 Z M 1.953125 0 "/></g></g></g><g fill="#100f0d" fill-opacity="1"><g transform="translate(125.288571, 50.997886)"><g><path d="M 10.546875 0 L 10.546875 -7.09375 L 0 -19.890625 L 5.515625 -19.890625 L 12.765625 -10.875 L 20.015625 -19.890625 L 25.515625 -19.890625 L 15.03125 -7.125 L 15.03125 0 Z M 10.546875 0 "/></g></g></g><g fill="#100f0d" fill-opacity="1"><g transform="translate(150.796599, 50.997886)"><g><path d="M 0.28125 0 L 9.234375 -19.890625 L 16.109375 -19.890625 L 25.078125 0 L 20.234375 0 L 18.34375 -4.203125 L 7.015625 -4.203125 L 5.125 0 Z M 8.625 -7.8125 L 16.71875 -7.8125 L 12.859375 -16.421875 L 12.5 -16.421875 Z M 8.625 -7.8125 "/></g></g></g><g fill="#100f0d" fill-opacity="1"><g transform="translate(176.137718, 50.997886)"><g><path d="M 1.953125 0 L 1.953125 -19.890625 L 6.453125 -19.890625 L 20.53125 -5.59375 L 20.53125 -19.890625 L 24.984375 -19.890625 L 24.984375 0 L 20.484375 0 L 6.40625 -14.328125 L 6.40625 0 Z M 1.953125 0 "/></g></g></g></svg>